HIERARCHY
ROOT Hips
{
	OFFSET 0.000000 100.481300 0.000000
	CHANNELS 6 Xposition Yposition Zposition Xrotation Yrotation Zrotation
	JOINT Spine
	{
		OFFSET -0.279200 12.230698 -2.892100
		CHANNELS 3 Xrotation Yrotation Zrotation
		JOINT Spine1
		{
			OFFSET -0.325700 14.269203 -3.374200
			CHANNELS 3 Xrotation Yrotation Zrotation
			JOINT Spine2
			{
				OFFSET -0.372300 16.307602 -0.352600
				CHANNELS 3 Xrotation Yrotation Zrotation
				JOINT Neck
				{
					OFFSET -0.418800 17.814194 8.416900
					CHANNELS 3 Xrotation Yrotation Zrotation
					JOINT Head
					{
						OFFSET 0.000000 7.031097 3.806800
						CHANNELS 3 Xrotation Yrotation Zrotation
						JOINT HeadTop_End
						{
							OFFSET 0.000000 24.646606 12.978600
							CHANNELS 3 Xrotation Yrotation Zrotation
							End Site
							{
								OFFSET 0.000000 27.854965 0.000000
							}
						}
					}
				}
				JOINT LeftShoulder
				{
					OFFSET 16.952999 14.495407 -7.737500
					CHANNELS 3 Xrotation Yrotation Zrotation
					JOINT LeftArm
					{
						OFFSET 9.308998 -2.777710 0.208600
						CHANNELS 3 Xrotation Yrotation Zrotation
						JOINT LeftForeArm
						{
							OFFSET 29.972298 0.000000 0.000000
							CHANNELS 3 Xrotation Yrotation Zrotation
							JOINT LeftHand
							{
								OFFSET 26.026505 0.000000 0.000000
								CHANNELS 3 Xrotation Yrotation Zrotation
								JOINT LeftHandThumb1
								{
									OFFSET 12.240501 -7.147949 9.207150
									CHANNELS 3 Xrotation Yrotation Zrotation
									JOINT LeftHandThumb2
									{
										OFFSET 4.138618 -2.389435 2.389433
										CHANNELS 3 Xrotation Yrotation Zrotation
										JOINT LeftHandThumb3
										{
											OFFSET 2.726913 -1.574387 1.574386
											CHANNELS 3 Xrotation Yrotation Zrotation
											JOINT LeftHandThumb4
											{
												OFFSET 3.941010 -2.275345 2.275342
												CHANNELS 3 Xrotation Yrotation Zrotation
												End Site
												{
													OFFSET -0.005798 5.087799 0.009903
												}
											}
										}
									}
								}
								JOINT LeftHandIndex1
								{
									OFFSET 24.424698 -1.985611 5.953459
									CHANNELS 3 Xrotation Yrotation Zrotation
									JOINT LeftHandIndex2
									{
										OFFSET 6.426697 0.000000 0.000000
										CHANNELS 3 Xrotation Yrotation Zrotation
										JOINT LeftHandIndex3
										{
											OFFSET 5.337898 0.000000 0.000000
											CHANNELS 3 Xrotation Yrotation Zrotation
											JOINT LeftHandIndex4
											{
												OFFSET 4.409401 0.000000 0.000000
												CHANNELS 3 Xrotation Yrotation Zrotation
												End Site
												{
													OFFSET 0.000000 4.409363 0.014373
												}
											}
										}
									}
								}
								JOINT LeftHandMiddle1
								{
									OFFSET 23.810104 0.000000 0.000000
									CHANNELS 3 Xrotation Yrotation Zrotation
									JOINT LeftHandMiddle2
									{
										OFFSET 7.176498 0.000000 0.000000
										CHANNELS 3 Xrotation Yrotation Zrotation
										JOINT LeftHandMiddle3
										{
											OFFSET 6.774902 0.000000 0.000000
											CHANNELS 3 Xrotation Yrotation Zrotation
											JOINT LeftHandMiddle4
											{
												OFFSET 5.403328 0.000000 0.000000
												CHANNELS 3 Xrotation Yrotation Zrotation
												End Site
												{
													OFFSET -0.027702 5.403244 0.017414
												}
											}
										}
									}
								}
								JOINT LeftHandRing1
								{
									OFFSET 22.908401 -0.839279 -6.020567
									CHANNELS 3 Xrotation Yrotation Zrotation
									JOINT LeftHandRing2
									{
										OFFSET 6.337502 0.000000 0.000000
										CHANNELS 3 Xrotation Yrotation Zrotation
										JOINT LeftHandRing3
										{
											OFFSET 5.779297 0.000000 0.000000
											CHANNELS 3 Xrotation Yrotation Zrotation
											JOINT LeftHandRing4
											{
												OFFSET 4.965698 0.000000 0.000000
												CHANNELS 3 Xrotation Yrotation Zrotation
												End Site
												{
													OFFSET 0.000000 4.965668 0.016186
												}
											}
										}
									}
								}
								JOINT LeftHandPinky1
								{
									OFFSET 20.037003 -1.530319 -10.950146
									CHANNELS 3 Xrotation Yrotation Zrotation
									JOINT LeftHandPinky2
									{
										OFFSET 5.254700 0.000000 0.000000
										CHANNELS 3 Xrotation Yrotation Zrotation
										JOINT LeftHandPinky3
										{
											OFFSET 4.810204 0.000000 0.000000
											CHANNELS 3 Xrotation Yrotation Zrotation
											JOINT LeftHandPinky4
											{
												OFFSET 3.647202 0.000000 0.000000
												CHANNELS 3 Xrotation Yrotation Zrotation
												End Site
												{
													OFFSET 0.000000 3.647186 0.011889
												}
											}
										}
									}
								}
							}
						}
					}
				}
				JOINT RightShoulder
				{
					OFFSET -15.141001 14.495407 -7.737500
					CHANNELS 3 Xrotation Yrotation Zrotation
					JOINT RightArm
					{
						OFFSET -9.308998 -2.777710 0.208500
						CHANNELS 3 Xrotation Yrotation Zrotation
						JOINT RightForeArm
						{
							OFFSET -29.972300 0.000000 0.000000
							CHANNELS 3 Xrotation Yrotation Zrotation
							JOINT RightHand
							{
								OFFSET -26.026505 0.000000 0.000000
								CHANNELS 3 Xrotation Yrotation Zrotation
								JOINT RightHandThumb1
								{
									OFFSET -12.240601 -7.148026 9.207092
									CHANNELS 3 Xrotation Yrotation Zrotation
									JOINT RightHandThumb2
									{
										OFFSET -4.138618 -2.389435 2.389433
										CHANNELS 3 Xrotation Yrotation Zrotation
										JOINT RightHandThumb3
										{
											OFFSET -2.726974 -1.574417 1.574421
											CHANNELS 3 Xrotation Yrotation Zrotation
											JOINT RightHandThumb4
											{
												OFFSET -3.941010 -2.275345 2.275343
												CHANNELS 3 Xrotation Yrotation Zrotation
												End Site
												{
													OFFSET 0.005814 5.087799 0.009927
												}
											}
										}
									}
								}
								JOINT RightHandIndex1
								{
									OFFSET -24.424698 -1.985657 5.953444
									CHANNELS 3 Xrotation Yrotation Zrotation
									JOINT RightHandIndex2
									{
										OFFSET -6.426697 0.000000 0.000000
										CHANNELS 3 Xrotation Yrotation Zrotation
										JOINT RightHandIndex3
										{
											OFFSET -5.337898 0.000000 0.000000
											CHANNELS 3 Xrotation Yrotation Zrotation
											JOINT RightHandIndex4
											{
												OFFSET -4.409401 0.000000 0.000000
												CHANNELS 3 Xrotation Yrotation Zrotation
												End Site
												{
													OFFSET 0.000000 4.409363 0.014408
												}
											}
										}
									}
								}
								JOINT RightHandMiddle1
								{
									OFFSET -23.810097 0.000000 0.000000
									CHANNELS 3 Xrotation Yrotation Zrotation
									JOINT RightHandMiddle2
									{
										OFFSET -7.176498 0.000000 0.000000
										CHANNELS 3 Xrotation Yrotation Zrotation
										JOINT RightHandMiddle3
										{
											OFFSET -6.774902 0.000000 0.000000
											CHANNELS 3 Xrotation Yrotation Zrotation
											JOINT RightHandMiddle4
											{
												OFFSET -5.403328 0.000000 0.000000
												CHANNELS 3 Xrotation Yrotation Zrotation
												End Site
												{
													OFFSET 0.027702 5.403244 0.017457
												}
											}
										}
									}
								}
								JOINT RightHandRing1
								{
									OFFSET -22.908302 -0.839325 -6.020576
									CHANNELS 3 Xrotation Yrotation Zrotation
									JOINT RightHandRing2
									{
										OFFSET -6.337502 0.000000 0.000000
										CHANNELS 3 Xrotation Yrotation Zrotation
										JOINT RightHandRing3
										{
											OFFSET -5.779297 0.000000 0.000000
											CHANNELS 3 Xrotation Yrotation Zrotation
											JOINT RightHandRing4
											{
												OFFSET -4.965698 0.000000 0.000000
												CHANNELS 3 Xrotation Yrotation Zrotation
												End Site
												{
													OFFSET 0.000000 4.965668 0.016226
												}
											}
										}
									}
								}
								JOINT RightHandPinky1
								{
									OFFSET -20.037003 -1.530334 -10.950259
									CHANNELS 3 Xrotation Yrotation Zrotation
									JOINT RightHandPinky2
									{
										OFFSET -5.254700 0.000000 0.000000
										CHANNELS 3 Xrotation Yrotation Zrotation
										JOINT RightHandPinky3
										{
											OFFSET -4.810204 0.000000 0.000000
											CHANNELS 3 Xrotation Yrotation Zrotation
											JOINT RightHandPinky4
											{
												OFFSET -3.647202 0.000000 0.000000
												CHANNELS 3 Xrotation Yrotation Zrotation
												End Site
												{
													OFFSET 0.000000 3.647186 0.011917
												}
											}
										}
									}
								}
							}
						}
					}
				}
			}
		}
	}
	JOINT LeftUpLeg
	{
		OFFSET 15.427100 -6.655098 0.678600
		CHANNELS 3 Xrotation Yrotation Zrotation
		JOINT LeftLeg
		{
			OFFSET 4.081073 -39.591068 13.024000
			CHANNELS 3 Xrotation Yrotation Zrotation
			JOINT LeftFoot
			{
				OFFSET -4.081074 -37.707932 -15.979700
				CHANNELS 3 Xrotation Yrotation Zrotation
				JOINT LeftToeBase
				{
					OFFSET 5.346399 -15.068900 20.645000
					CHANNELS 3 Xrotation Yrotation Zrotation
					JOINT LeftToe_End
					{
						OFFSET 2.754700 0.931300 11.300900
						CHANNELS 3 Xrotation Yrotation Zrotation
						End Site
						{
							OFFSET 0.000000 11.669021 0.000000
						}
					}
				}
			}
		}
	}
	JOINT RightUpLeg
	{
		OFFSET -15.569500 -6.655098 0.678600
		CHANNELS 3 Xrotation Yrotation Zrotation
		JOINT RightLeg
		{
			OFFSET -4.081825 -39.591045 13.023800
			CHANNELS 3 Xrotation Yrotation Zrotation
			JOINT RightFoot
			{
				OFFSET 4.081824 -37.707954 -15.979600
				CHANNELS 3 Xrotation Yrotation Zrotation
				JOINT RightToeBase
				{
					OFFSET -5.346400 -15.068900 20.645000
					CHANNELS 3 Xrotation Yrotation Zrotation
					JOINT RightToe_End
					{
						OFFSET -2.754700 0.931300 11.300900
						CHANNELS 3 Xrotation Yrotation Zrotation
						End Site
						{
							OFFSET 0.000000 11.669021 0.000000
						}
					}
				}
			}
		}
	}
}
MOTION
Frames: 4
Frame Time: 0.033333
5.592544 88.119858 46.847549 -7.862307 -29.309236 2.482854 10.489154 -7.223740 2.453317 3.311591 -2.596999 0.328089 3.312305 -2.600886 0.359276 10.741811 11.609827 -3.028948 15.183867 10.073296 6.733485 -0.000001 0.000000 0.000002 0.272903 -12.668207 -12.150095 -54.207093 -18.452190 -39.058488 -0.000060 -62.504195 -0.000044 -133.571289 -3.266386 25.951907 3.853027 6.821113 3.043136 19.473192 -1.474921 7.636926 -4.536189 -9.613087 1.492963 0.000002 0.000001 0.000001 -0.688898 3.377415 -37.651554 2.943702 5.079811 -60.162383 0.513682 2.400820 -24.150502 -0.000001 0.000000 -0.000002 0.405927 5.507043 -52.453151 3.387131 5.308621 -65.057484 0.282016 1.797462 -17.832371 -0.000002 -0.000002 0.000001 -0.074384 5.736777 -61.061413 4.163285 5.603171 -73.207108 0.582664 2.548972 -25.748012 0.000001 -0.000002 -0.000003 -3.896776 5.015718 -69.970842 3.626201 5.412927 -67.615861 0.404016 2.139751 -21.382891 -0.000001 0.000001 0.000001 0.502850 4.945027 12.179357 -39.772919 61.424841 62.059481 0.000053 99.269696 -0.000070 -49.210837 -30.072927 -28.420781 8.377150 -4.904122 11.022006 21.620189 -18.183907 -18.379225 -0.702896 -49.821206 -32.535138 -0.000002 -0.000002 0.000002 -0.975544 1.603447 13.244305 0.928505 -2.792350 36.779397 0.615646 -2.316065 29.767836 0.000000 0.000000 -0.000001 3.413059 -7.186267 51.650253 6.296820 -4.359580 110.634680 0.248716 -1.503059 18.790259 -0.000000 0.000000 -0.000000 -3.349042 -2.600432 57.010571 5.440856 -4.590913 99.698161 1.689404 -3.590706 50.382245 -0.000000 0.000001 -0.000001 -3.996435 -3.303946 64.593864 4.058844 -4.618669 82.610523 2.315546 -4.026786 59.787200 -0.000001 -0.000000 0.000000 26.893600 27.630673 -11.754189 19.998338 4.337860 -1.952621 -24.943697 6.858433 -4.563928 -11.417325 0.000003 -0.000000 0.000000 0.000001 0.000000 -37.783008 -3.554125 5.191006 23.670068 -8.138730 -4.804519 3.681500 1.119093 13.167101 -6.140766 -0.000007 -0.000008 0.000003 -0.000001 0.000002 
5.211629 87.769798 49.032806 -7.067074 -28.802727 2.358873 10.028677 -7.668450 3.095965 2.951125 -2.716443 0.385104 2.950278 -2.719771 0.413859 11.052022 11.711276 -3.233528 15.945920 9.805771 6.472651 -0.000000 -0.000001 0.000001 0.288263 -12.465987 -12.010413 -53.643653 -17.732004 -39.135570 0.000016 -62.790769 0.000017 -133.505828 -3.253223 25.961725 3.919128 7.014560 3.049395 19.473194 -1.474920 7.636927 -4.536191 -9.613091 1.492967 -0.000001 0.000002 0.000001 -0.654429 3.416443 -37.586521 2.943610 5.079762 -60.161269 0.513683 2.400820 -24.150506 -0.000005 -0.000001 0.000002 0.405928 5.507042 -52.453155 3.387133 5.308620 -65.057477 0.282013 1.797462 -17.832369 -0.000001 -0.000002 -0.000001 -0.074383 5.736780 -61.061413 4.155558 5.600847 -73.127612 0.582669 2.548969 -25.748008 -0.000001 -0.000001 -0.000002 -4.085456 4.974132 -70.143939 3.602851 5.403293 -67.368068 0.384655 2.089640 -20.858132 -0.000002 0.000000 -0.000000 0.502480 5.006409 12.087483 -39.205166 61.832015 61.743510 0.000634 99.059087 -0.000615 -49.584277 -29.748226 -28.559012 8.377151 -4.904122 11.022008 21.620189 -18.183905 -18.379225 -0.702897 -49.821206 -32.535142 -0.000003 0.000001 0.000000 -0.971609 1.609199 13.186506 0.915018 -2.774297 36.502139 0.615646 -2.316065 29.767836 -0.000000 0.000000 -0.000001 3.413058 -7.186267 51.650253 6.296820 -4.359580 110.634687 0.248715 -1.503059 18.790259 -0.000001 -0.000000 0.000000 -3.349041 -2.600433 57.010568 5.440855 -4.590912 99.698168 1.689403 -3.590706 50.382248 -0.000000 0.000000 -0.000001 -3.996435 -3.303946 64.593864 4.058844 -4.618670 82.610523 2.315546 -4.026786 59.787200 -0.000001 -0.000000 0.000001 27.263907 27.279005 -11.729122 20.349391 3.984010 -1.494242 -25.298544 7.402928 -4.816963 -12.480810 -0.000004 0.000001 0.000000 0.000000 -0.000000 -38.171960 -4.161904 6.143409 23.199880 -9.575559 -5.584133 4.467762 2.553681 9.737989 -5.980977 0.000008 -0.000008 0.000002 -0.000000 -0.000001 
4.767357 87.186134 51.560829 -6.295852 -27.669643 2.203412 9.550602 -8.500558 3.843094 2.612767 -2.905061 0.482114 2.609443 -2.908084 0.508098 11.340522 11.813709 -3.444816 16.656403 9.568828 6.206601 -0.000001 0.000001 -0.000002 0.280153 -12.613154 -12.054234 -53.071926 -16.928694 -38.922817 -0.000044 -63.142415 -0.000052 -133.434016 -3.234815 26.027708 3.984422 7.208364 3.055426 19.473194 -1.474918 7.636927 -4.536189 -9.613091 1.492963 0.000001 -0.000002 0.000002 -0.620030 3.455568 -37.521545 2.943518 5.079691 -60.160122 0.513683 2.400820 -24.150504 -0.000000 0.000000 0.000001 0.405927 5.507044 -52.453151 3.387128 5.308619 -65.057477 0.282017 1.797462 -17.832371 -0.000000 0.000001 0.000000 -0.074384 5.736780 -61.061420 4.147789 5.598493 -73.048197 0.582664 2.548969 -25.748010 0.000000 -0.000000 0.000001 -4.274344 4.933765 -70.317310 3.579530 5.393557 -67.120044 0.365751 2.039371 -20.333378 -0.000002 -0.000003 0.000001 0.506118 4.943898 11.893777 -38.814462 62.168867 61.697092 0.000955 98.831437 -0.000943 -49.825837 -29.473806 -28.607675 8.377152 -4.904123 11.022006 21.620190 -18.183905 -18.379223 -0.702895 -49.821206 -32.535145 -0.000003 0.000001 0.000004 -0.967663 1.614945 13.128694 0.901652 -2.756122 36.224858 0.615646 -2.316065 29.767832 -0.000001 0.000000 -0.000001 3.413058 -7.186267 51.650256 6.296820 -4.359580 110.634687 0.248717 -1.503058 18.790259 0.000000 0.000000 -0.000000 -3.349041 -2.600432 57.010571 5.440856 -4.590913 99.698168 1.689403 -3.590706 50.382248 -0.000000 -0.000001 -0.000000 -3.996436 -3.303946 64.593864 4.058844 -4.618670 82.610523 2.315545 -4.026786 59.787200 -0.000000 -0.000001 0.000002 27.568554 27.004232 -11.372073 21.179419 3.088226 -1.036499 -25.807071 7.942439 -4.932203 -13.839195 0.000001 0.000001 0.000000 -0.000000 0.000000 -38.845290 -3.959211 6.618354 24.059838 -11.117519 -6.642552 5.761436 3.048501 7.143036 -6.306393 0.000006 -0.000000 -0.000000 0.000004 0.000000 
4.362752 86.694328 54.250561 -5.583436 -26.589411 1.815648 9.064762 -9.317805 4.823167 2.289261 -3.088473 0.612460 2.281738 -3.091602 0.635596 11.606438 11.917387 -3.661767 17.310744 9.364061 5.934857 0.000000 0.000001 -0.000001 0.271476 -12.663868 -12.128835 -52.324057 -16.109976 -38.748906 0.000104 -63.504538 0.000101 -133.479354 -3.273693 25.958412 4.048873 7.402550 3.061230 19.473190 -1.474922 7.636927 -4.536189 -9.613092 1.492966 0.000001 -0.000002 0.000002 -0.585714 3.494786 -37.456641 2.943403 5.079642 -60.158954 0.513680 2.400820 -24.150502 -0.000002 -0.000001 0.000001 0.405928 5.507042 -52.453155 3.387127 5.308622 -65.057477 0.282020 1.797464 -17.832369 -0.000000 0.000001 -0.000002 -0.074384 5.736779 -61.061420 4.140046 5.596142 -72.968735 0.582668 2.548973 -25.748008 0.000001 -0.000002 0.000002 -4.463491 4.894621 -70.491008 3.556190 5.383692 -66.871841 0.347323 1.988955 -19.808664 -0.000001 -0.000002 -0.000003 0.512312 4.795437 11.602549 -38.449153 62.573596 61.780058 0.000681 98.566836 -0.000680 -50.031586 -29.220427 -28.591116 8.377151 -4.904123 11.022009 21.620190 -18.183905 -18.379225 -0.702893 -49.821210 -32.535145 0.000000 0.000000 0.000002 -0.963726 1.620699 13.070883 0.888369 -2.737912 35.947600 0.615646 -2.316065 29.767832 0.000000 0.000000 -0.000000 3.413058 -7.186267 51.650253 6.296820 -4.359580 110.634687 0.248716 -1.503059 18.790260 0.000001 0.000000 -0.000000 -3.349040 -2.600432 57.010571 5.440857 -4.590912 99.698161 1.689403 -3.590706 50.382245 -0.000000 0.000001 -0.000001 -3.996435 -3.303945 64.593864 4.058844 -4.618669 82.610523 2.315545 -4.026785 59.787200 -0.000000 0.000001 0.000001 28.059209 26.786629 -10.969727 21.823776 2.545252 -0.485644 -26.211288 8.470409 -4.840963 -15.485777 0.000006 0.000001 -0.000000 0.000000 -0.000000 -38.852192 -3.787556 6.844286 24.373428 -11.927762 -6.949056 7.907893 3.101823 3.802032 -7.053296 0.000016 0.000012 -0.000000 0.000002 0.000001 
